<svg width="45" height="45" viewBox="0 0 45 45" fill="none" xmlns="http://www.w3.org/2000/svg">
<rect x="0.75" y="0.75" width="43.5" height="43.5" rx="14.25" stroke="#342C33" stroke-width="1.5"/>
<path fill-rule="evenodd" clip-rule="evenodd" d="M13.1927 18.9C12.9126 21.5029 12.925 24.5049 13.3149 27.0973C13.5306 28.5316 14.7012 29.6313 16.1463 29.7569L17.6565 29.8882C20.8056 30.1619 23.9724 30.1619 27.1215 29.8882L28.6317 29.7569C30.0768 29.6313 31.2475 28.5316 31.4632 27.0973C31.853 24.5049 31.8655 21.5031 31.5853 18.9002C31.5491 18.5984 31.5084 18.2971 31.4632 17.9962C31.2475 16.5618 30.0768 15.4622 28.6317 15.3366L27.1215 15.2053C23.9724 14.9316 20.8056 14.9316 17.6565 15.2053L16.1463 15.3366C14.7012 15.4622 13.5306 16.5618 13.3149 17.9962C13.2696 18.297 13.2289 18.5983 13.1927 18.9ZM17.7864 16.6997C20.849 16.4334 23.929 16.4334 26.9916 16.6997L28.5018 16.831C29.2562 16.8965 29.8672 17.4705 29.9798 18.2193C29.9915 18.2971 30.0029 18.3748 30.014 18.4527L24.453 21.5421C23.1694 22.2552 21.6086 22.2552 20.325 21.5421L14.7641 18.4527C14.7751 18.3749 14.7865 18.2971 14.7982 18.2193C14.9108 17.4705 15.5219 16.8965 16.2762 16.831L17.7864 16.6997ZM30.1975 20.0666C30.3915 22.3344 30.3189 24.6192 29.9798 26.8742C29.8672 27.623 29.2562 28.197 28.5018 28.2625L26.9916 28.3938C23.929 28.6601 20.849 28.6601 17.7864 28.3938L16.2762 28.2625C15.5219 28.197 14.9108 27.623 14.7982 26.8742C14.4591 24.6193 14.3865 22.3344 14.5805 20.0667L19.5965 22.8534C21.3332 23.8181 23.4448 23.8182 25.1814 22.8534L30.1975 20.0666Z" fill="#342C33"/>
</svg>
