<svg width="16" height="20" viewBox="0 0 16 20" fill="none" xmlns="http://www.w3.org/2000/svg">
<path d="M9.78151 10.9143C10.105 10.6556 10.5769 10.708 10.8357 11.0315C11.0944 11.3549 11.042 11.8269 10.7185 12.0857L8.2246 14.0808C8.09591 14.1861 7.93159 14.2494 7.75248 14.25L7.75006 14.25L7.74373 14.25C7.56768 14.2485 7.40609 14.1864 7.27884 14.0835L4.78151 12.0857C4.45806 11.8269 4.40562 11.3549 4.66438 11.0315C4.92313 10.708 5.3951 10.6556 5.71855 10.9143L7.00006 11.9396V8.5C7.00006 8.08579 7.33584 7.75 7.75006 7.75C8.16427 7.75 8.50006 8.08579 8.50006 8.5V11.9395L9.78151 10.9143Z" fill="#342C33"/>
<path fill-rule="evenodd" clip-rule="evenodd" d="M2.75 0C1.23122 0 0 1.23122 0 2.75V16.75C0 18.2688 1.23122 19.5 2.75 19.5H12.75C14.2688 19.5 15.5 18.2688 15.5 16.75V5.9479C15.5 5.58178 15.3852 5.22488 15.1717 4.92745L12.1585 0.729549C11.8298 0.271573 11.3006 0 10.7368 0H2.75ZM1.5 2.75C1.5 2.05964 2.05964 1.5 2.75 1.5H10V5.89705C10 6.31126 10.3358 6.64705 10.75 6.64705H14V16.75C14 17.4404 13.4404 18 12.75 18H2.75C2.05964 18 1.5 17.4404 1.5 16.75V2.75Z" fill="#342C33"/>
</svg>
