<svg width="84" height="16" viewBox="0 0 84 16" fill="none" xmlns="http://www.w3.org/2000/svg">
<path d="M16.0729 4.30789V0H0.133667V15.8712H5.12175V10.7924H14.5311V6.48451H5.12175V4.30789H16.0729Z" fill="#342C33"/>
<path d="M27.8795 0H17.8807V15.8712H27.8795C32.8449 15.8712 36.6087 12.833 36.6087 7.93559C36.6087 3.01552 32.8449 0 27.8795 0ZM27.8795 11.5179H22.8461V4.35324H27.8795C29.9881 4.35324 31.5299 5.89501 31.5299 7.93559C31.5299 9.9535 29.9881 11.4726 27.8795 11.5179Z" fill="#342C33"/>
<path d="M58.0858 0V9.9535L42.8721 0H37.9747V15.8712H42.8721V5.94035L58.0858 15.8712H62.9832V0H58.0858Z" fill="#342C33"/>
<path d="M74.7987 0H64.7999V15.8712H74.7987C79.7641 15.8712 83.5278 12.833 83.5278 7.93559C83.5278 3.01552 79.7641 0 74.7987 0ZM74.7987 11.5179H69.7653V4.35324H74.7987C76.9073 4.35324 78.4491 5.89501 78.4491 7.93559C78.4491 9.9535 76.9073 11.4726 74.7987 11.5179Z" fill="#342C33"/>
</svg>
