<svg width="18" height="15" viewBox="0 0 18 15" fill="none" xmlns="http://www.w3.org/2000/svg">
<path d="M4.75 5.09013C4.05964 5.09013 3.5 5.64977 3.5 6.34013C3.5 7.03048 4.05964 7.59013 4.75 7.59013C5.44036 7.59013 6 7.03048 6 6.34013C6 5.64977 5.44036 5.09013 4.75 5.09013Z" fill="#342C33"/>
<path d="M8.75 5.09013C8.05964 5.09013 7.5 5.64977 7.5 6.34013C7.5 7.03048 8.05964 7.59013 8.75 7.59013C9.44036 7.59013 10 7.03048 10 6.34013C10 5.64977 9.44036 5.09013 8.75 5.09013Z" fill="#342C33"/>
<path d="M11.5 6.34013C11.5 5.64977 12.0596 5.09013 12.75 5.09013C13.4404 5.09013 14 5.64977 14 6.34013C14 7.03048 13.4404 7.59013 12.75 7.59013C12.0596 7.59013 11.5 7.03048 11.5 6.34013Z" fill="#342C33"/>
<path fill-rule="evenodd" clip-rule="evenodd" d="M12.8507 0.182917C10.1565 -0.0468426 7.44826 -0.0601765 4.75194 0.143044L4.55871 0.157608C1.98741 0.351406 0 2.49424 0 5.07283V13.5901C0 13.854 0.138666 14.0985 0.365148 14.2339C0.591631 14.3693 0.872606 14.3757 1.10504 14.2508L5.01583 12.1491C5.19774 12.0513 5.40104 12.0001 5.60756 12.0001H14.584C15.7161 12.0001 16.6862 11.1907 16.8892 10.077C17.3005 7.81975 17.3329 5.50978 16.9853 3.24188L16.8829 2.57355C16.6964 1.3568 15.701 0.425985 14.4745 0.321389L12.8507 0.182917ZM4.86468 1.6388C7.48103 1.44161 10.109 1.45455 12.7233 1.67749L14.347 1.81596C14.8834 1.8617 15.3186 2.26874 15.4002 2.80082L15.5026 3.46914C15.825 5.57243 15.7949 7.71472 15.4135 9.80811C15.3404 10.2089 14.9913 10.5001 14.584 10.5001H5.60756C5.15322 10.5001 4.70596 10.6127 4.30575 10.8278L1.5 12.3356V5.07283C1.5 3.27893 2.88262 1.78819 4.67144 1.65337L4.86468 1.6388Z" fill="#342C33"/>
</svg>
