<svg width="18" height="21" viewBox="0 0 18 21" fill="none" xmlns="http://www.w3.org/2000/svg">
<path fill-rule="evenodd" clip-rule="evenodd" d="M3.75588 8.75C3.75588 6.12665 5.88253 4 8.50588 4C11.1292 4 13.2559 6.12665 13.2559 8.75C13.2559 11.3734 11.1292 13.5 8.50588 13.5C5.88253 13.5 3.75588 11.3734 3.75588 8.75ZM8.50588 5.5C6.71096 5.5 5.25588 6.95507 5.25588 8.75C5.25588 10.5449 6.71096 12 8.50588 12C10.3008 12 11.7559 10.5449 11.7559 8.75C11.7559 6.95507 10.3008 5.5 8.50588 5.5Z" fill="#342C33"/>
<path fill-rule="evenodd" clip-rule="evenodd" d="M0.0302477 7.60685C0.384575 3.30824 3.97673 0 8.28992 0H8.72186C13.035 0 16.6272 3.30824 16.9815 7.60685C17.1719 9.916 16.4586 12.2089 14.9919 14.0026L10.1989 19.8644C9.32386 20.9345 7.68791 20.9345 6.81291 19.8644L2.01985 14.0026C0.55319 12.2089 -0.160091 9.916 0.0302477 7.60685ZM8.28992 1.5C4.75738 1.5 1.81537 4.20948 1.52518 7.73008C1.36676 9.65192 1.96041 11.5602 3.18107 13.0531L7.97413 18.9149C8.24896 19.251 8.76281 19.251 9.03764 18.9149L13.8307 13.0531C15.0514 11.5602 15.645 9.65192 15.4866 7.73008C15.1964 4.20948 12.2544 1.5 8.72186 1.5H8.28992Z" fill="#342C33"/>
</svg>
