<svg width="17" height="14" viewBox="0 0 17 14" fill="none" xmlns="http://www.w3.org/2000/svg">
<path fill-rule="evenodd" clip-rule="evenodd" d="M0.16717 3.38332C-0.0758562 5.64135 -0.0650232 8.2456 0.273152 10.4945C0.460271 11.7388 1.47584 12.6928 2.72944 12.8017L4.03958 12.9156C6.7714 13.1531 9.51869 13.1531 12.2505 12.9156L13.5606 12.8017C14.8143 12.6928 15.8298 11.7388 16.0169 10.4945C16.3551 8.24559 16.366 5.6415 16.1229 3.38346C16.0915 3.12168 16.0562 2.86025 16.0169 2.59926C15.8298 1.35492 14.8143 0.400966 13.5606 0.291992L12.2505 0.178104C9.51868 -0.0593681 6.77141 -0.0593679 4.03958 0.178104L2.72944 0.291992C1.47584 0.400966 0.460271 1.35492 0.273152 2.59926C0.233912 2.86021 0.198585 3.12159 0.16717 3.38332ZM4.15227 1.47448C6.80911 1.24352 9.48098 1.24352 12.1378 1.47448L13.448 1.58836C14.1023 1.64525 14.6325 2.14321 14.7301 2.79276C14.7403 2.86022 14.7502 2.92771 14.7597 2.99522L9.93553 5.67534C8.82201 6.29397 7.46802 6.29397 6.35449 5.67534L1.53034 2.99525C1.53993 2.92773 1.5498 2.86023 1.55995 2.79276C1.65762 2.14321 2.18775 1.64525 2.84214 1.58836L4.15227 1.47448ZM14.919 4.39535C15.0873 6.36264 15.0243 8.34477 14.7301 10.301C14.6325 10.9505 14.1023 11.4485 13.448 11.5054L12.1378 11.6193C9.48098 11.8502 6.80911 11.8502 4.15228 11.6193L2.84214 11.5054C2.18775 11.4485 1.65762 10.9505 1.55995 10.301C1.26578 8.34478 1.20284 6.36266 1.3711 4.39538L5.72254 6.81285C7.22908 7.64981 9.06094 7.64981 10.5675 6.81285L14.919 4.39535Z" fill="#342C33"/>
</svg>
