<svg width="17" height="16" viewBox="0 0 17 16" fill="none" xmlns="http://www.w3.org/2000/svg">
<path fill-rule="evenodd" clip-rule="evenodd" d="M7.13034 0.789771C7.74061 -0.263259 9.25939 -0.263256 9.86966 0.789772L11.7386 4.0146C11.9108 4.31185 12.2086 4.5147 12.548 4.56602L15.6514 5.03534C17.0042 5.23992 17.4787 6.95009 16.4252 7.82402L14.1639 9.69976C13.8466 9.96303 13.6973 10.3783 13.7744 10.7837L14.4078 14.1142C14.6559 15.4188 13.2881 16.4324 12.1145 15.8137L9.02698 14.186C8.69713 14.0121 8.30287 14.0121 7.97302 14.186L4.88553 15.8137C3.71189 16.4324 2.34405 15.4188 2.59217 14.1142L3.22557 10.7837C3.30267 10.3783 3.15343 9.96303 2.83605 9.69976L0.574847 7.82402C-0.478691 6.95008 -0.00416875 5.23992 1.34862 5.03534L4.45204 4.56602C4.79143 4.5147 5.08918 4.31185 5.26145 4.0146L7.13034 0.789771ZM8.69566 1.47185C8.60848 1.32141 8.39151 1.32141 8.30433 1.47184L6.43544 4.69667C6.05645 5.35062 5.4014 5.79689 4.65475 5.9098L1.55133 6.37912C1.35807 6.40835 1.29029 6.65266 1.44079 6.7775L3.702 8.65324C4.40023 9.23244 4.72854 10.1461 4.55893 11.0379L3.92553 14.3684C3.89009 14.5548 4.08549 14.6996 4.25316 14.6112L7.34064 12.9835C8.06632 12.6009 8.93368 12.6009 9.65936 12.9835L12.7468 14.6112C12.9145 14.6996 13.1099 14.5548 13.0745 14.3684L12.4411 11.0379C12.2715 10.1461 12.5998 9.23245 13.298 8.65324L15.5592 6.77751C15.7097 6.65266 15.6419 6.40835 15.4487 6.37912L12.3453 5.9098C11.5986 5.79689 10.9435 5.35062 10.5646 4.69667L8.69566 1.47185Z" fill="#342C33"/>
</svg>
