<svg width="16" height="16" viewBox="0 0 16 16" fill="none" xmlns="http://www.w3.org/2000/svg">
<path fill-rule="evenodd" clip-rule="evenodd" d="M4.92308 8.53846C4.92308 6.83912 6.30066 5.46154 8 5.46154C9.69934 5.46154 11.0769 6.83912 11.0769 8.53846C11.0769 10.2378 9.69934 11.6154 8 11.6154C6.30066 11.6154 4.92308 10.2378 4.92308 8.53846ZM8 6.69231C6.9804 6.69231 6.15385 7.51886 6.15385 8.53846C6.15385 9.55806 6.9804 10.3846 8 10.3846C9.0196 10.3846 9.84615 9.55806 9.84615 8.53846C9.84615 7.51886 9.0196 6.69231 8 6.69231Z" fill="#342C33"/>
<path fill-rule="evenodd" clip-rule="evenodd" d="M1.70127 7.42778C1.35738 7.92331 1.23077 8.31093 1.23077 8.53846C1.23077 8.76599 1.35738 9.15361 1.70127 9.64915C2.0337 10.1282 2.52782 10.6474 3.15296 11.1272C4.40598 12.0889 6.12386 12.8462 8 12.8462C9.87614 12.8462 11.594 12.0889 12.847 11.1272C13.4722 10.6474 13.9663 10.1282 14.2987 9.64915C14.6426 9.15361 14.7692 8.76599 14.7692 8.53846C14.7692 8.31093 14.6426 7.92331 14.2987 7.42778C13.9663 6.94876 13.4722 6.42951 12.847 5.94972C11.594 4.98804 9.87614 4.23077 8 4.23077C6.12386 4.23077 4.40598 4.98804 3.15296 5.94972C2.52782 6.42951 2.0337 6.94876 1.70127 7.42778ZM2.40361 4.97336C3.82331 3.88376 5.79773 3 8 3C10.2023 3 12.1767 3.88376 13.5964 4.97336C14.3076 5.51921 14.8949 6.12816 15.3099 6.72607C15.7133 7.30746 16 7.94548 16 8.53846C16 9.13145 15.7133 9.76947 15.3099 10.3509C14.8949 10.9488 14.3076 11.5577 13.5964 12.1036C12.1767 13.1932 10.2023 14.0769 8 14.0769C5.79773 14.0769 3.82331 13.1932 2.40361 12.1036C1.69241 11.5577 1.10507 10.9488 0.690136 10.3509C0.286663 9.76947 0 9.13145 0 8.53846C0 7.94548 0.286663 7.30746 0.690136 6.72607C1.10507 6.12816 1.69241 5.51921 2.40361 4.97336Z" fill="#342C33"/>
</svg>
